<svg xmlns="http://www.w3.org/2000/svg" xmlns:xlink="http://www.w3.org/1999/xlink" width="290.384" height="582.36" viewBox="0 0 290.384 582.36"><defs><linearGradient id="a" x1="0.17" y1="1.143" x2="0.669" y2="0.457" gradientUnits="objectBoundingBox"><stop offset="0" stop-color="#1a237e" stop-opacity="0.4"/><stop offset="1" stop-color="#1a237e" stop-opacity="0"/></linearGradient></defs><g transform="translate(-184.716)"><path d="M701.5,240.549h-3.2V152.894a50.734,50.734,0,0,0-50.734-50.734H461.847a50.734,50.734,0,0,0-50.734,50.734V633.785a50.734,50.734,0,0,0,50.734,50.734H647.562A50.734,50.734,0,0,0,698.3,633.786V302.944h3.2Z" transform="translate(-226.396 -102.16)" fill="#3f3d56"/><path d="M652.33,117.918H628.09a18,18,0,0,1-16.668,24.8H505.028a18,18,0,0,1-16.666-24.8H465.72a37.888,37.888,0,0,0-37.888,37.888V636a37.888,37.888,0,0,0,37.888,37.888H652.33A37.888,37.888,0,0,0,690.218,636h0V155.805a37.888,37.888,0,0,0-37.887-37.887Z" transform="translate(-229.117 -104.724)" fill="#fff"/><g transform="translate(232.192 395.772)" style="isolation:isolate"><path d="M467.814,574.842h28.37v5.552H473.571v16.791h20.422v5.482H473.571v21.242h-5.757Z" transform="translate(-467.814 -574.842)" fill="#3f3d56"/><path d="M509.881,574.842H515.7V623.9h-5.822Z" transform="translate(-474.659 -574.842)" fill="#3f3d56"/><path d="M530.146,624.041q-3.326-3.7-3.324-10.349V591.7h5.822v21.107q0,5,2.261,7.333a8.1,8.1,0,0,0,6.1,2.331,9.012,9.012,0,0,0,5.239-1.576,10.68,10.68,0,0,0,3.561-4.112,11.76,11.76,0,0,0,1.268-5.347V591.7H556.9v34.947h-5.552v-5.072h-.275a11.541,11.541,0,0,1-4.592,4.387,13.446,13.446,0,0,1-6.717,1.78Q533.473,627.742,530.146,624.041Z" transform="translate(-477.415 -577.585)" fill="#3f3d56"/><path d="M582.5,625.128a8.951,8.951,0,0,1-3.048-1.883,8.57,8.57,0,0,1-2.056-3.07,11.634,11.634,0,0,1-.685-4.257V595.059h-6.1v-5.277h6.1v-9.868h5.822v9.868h8.5v5.277h-8.5v19.473a7.033,7.033,0,0,0,1.1,4.343,4.655,4.655,0,0,0,3.771,1.543,7.084,7.084,0,0,0,3.836-1.165v5.687a8.924,8.924,0,0,1-2.088.685,14.836,14.836,0,0,1-2.709.205,11.011,11.011,0,0,1-3.939-.7Z" transform="translate(-484.54 -575.667)" fill="#3f3d56"/><path d="M612.036,625.128a8.951,8.951,0,0,1-3.048-1.883,8.571,8.571,0,0,1-2.056-3.07,11.634,11.634,0,0,1-.685-4.257V595.059h-6.1v-5.277h6.1v-9.868h5.822v9.868h8.5v5.277h-8.5v19.473a7.034,7.034,0,0,0,1.1,4.344,4.655,4.655,0,0,0,3.771,1.543,7.085,7.085,0,0,0,3.836-1.165v5.687a8.925,8.925,0,0,1-2.088.685,14.836,14.836,0,0,1-2.709.205,11.052,11.052,0,0,1-3.939-.7Z" transform="translate(-489.347 -575.667)" fill="#3f3d56"/><path d="M637.389,625.127a16.638,16.638,0,0,1-6.2-6.609,20.013,20.013,0,0,1-2.228-9.491,20.842,20.842,0,0,1,2.088-9.318,16.858,16.858,0,0,1,5.93-6.782,15.79,15.79,0,0,1,8.908-2.536,16.825,16.825,0,0,1,8.908,2.293,15.23,15.23,0,0,1,5.789,6.34,20.407,20.407,0,0,1,2.023,9.253,6.9,6.9,0,0,1-.205,1.781H634.788a13.8,13.8,0,0,0,1.921,6.717,11.161,11.161,0,0,0,4.349,4.111,11.771,11.771,0,0,0,5.514,1.37q6.717,0,10.349-6.3l4.932,2.4a17.568,17.568,0,0,1-6.135,6.717,18.435,18.435,0,0,1-18.329.054Zm19.046-19.872a11.309,11.309,0,0,0-1.236-4.387,9.416,9.416,0,0,0-3.459-3.7,10.835,10.835,0,0,0-5.93-1.505,9.845,9.845,0,0,0-6.955,2.638,12.707,12.707,0,0,0-3.734,6.955Z" transform="translate(-494.034 -577.371)" fill="#3f3d56"/><path d="M677.24,591.485h5.552V597.1h.275a9.5,9.5,0,0,1,3.977-4.8,11.137,11.137,0,0,1,6.167-1.921,10.19,10.19,0,0,1,4.111.755v6.237a10.914,10.914,0,0,0-4.932-1.1,8.144,8.144,0,0,0-4.662,1.441,10.417,10.417,0,0,0-3.394,3.879,11.2,11.2,0,0,0-1.268,5.255v19.575h-5.822V591.485Z" transform="translate(-501.89 -577.37)" fill="#3f3d56"/></g><path d="M411.327,337.858l76.238,76.6-72.007-.837-26.793-26.793Z" transform="translate(-63.256 -54.973)" fill="#01579b"/><path d="M442.228,370.853l-53.463,17.92,32.71-38.94Z" transform="translate(-63.256 -56.922)" fill="url(#a)"/><path d="M469.564,149.89,317.153,302.318l-35.878-35.869L397.842,149.89Z" transform="translate(-45.767 -24.389)" fill="#54c5f8"/><path d="M345.265,341.637l62.8-62.8h72.007l-98.8,97.963Z" transform="translate(-56.178 -45.37)" fill="#54c5f8"/><path d="M381.43,310.52l35.877,35.86-35.539,36-36-35.166Z" transform="translate(-56.26 -50.525)" fill="#29b6f6"/></g></svg>