<svg xmlns="http://www.w3.org/2000/svg" width="65.506" height="51.469" viewBox="0 0 65.506 51.469">
  <g id="Icon_ionic-logo-javascript" data-name="Icon ionic-logo-javascript" transform="translate(24.75 -2.25)">
    <path id="Path_393" data-name="Path 393" d="M.985,2.813h-11.7V33.884c0,7.688-2.637,9.835-7.225,9.835a17.478,17.478,0,0,1-5.593-.887l-1.219,9.1a27.734,27.734,0,0,0,8.028,1.184C-6.187,53.112.985,48.159.985,33.96V2.813Z" transform="translate(0 0.607)" fill="#9a61d7"/>
    <path id="Path_394" data-name="Path 394" d="M9.491,2.25C-1.832,2.25-9,8.683-9,17.187-9,24.51-3.48,29.1,4.546,32.052c5.8,2.07,8.1,3.92,8.1,6.951,0,3.327-2.652,5.472-7.669,5.472A25.362,25.362,0,0,1-6.779,41.368v0L-9,50.609A29,29,0,0,0,4.33,53.717c13.26,0,19.423-7.1,19.423-15.455,0-7.1-3.942-11.683-12.469-14.938-6.308-2.514-8.959-3.918-8.959-7.1,0-2.515,2.294-4.806,7.025-4.806a20.229,20.229,0,0,1,9.724,2.528l2.8-9.358A30.121,30.121,0,0,0,9.491,2.25Z" transform="translate(17.003)" fill="#9a61d7"/>
  </g>
</svg>
