<svg xmlns="http://www.w3.org/2000/svg" width="290.384" height="582.36" viewBox="0 0 290.384 582.36"><g transform="translate(-206.61 35.058)"><path d="M701.5,240.549h-3.2V152.894a50.734,50.734,0,0,0-50.734-50.734H461.847a50.734,50.734,0,0,0-50.734,50.734V633.785a50.734,50.734,0,0,0,50.734,50.734H647.562A50.734,50.734,0,0,0,698.3,633.786V302.944h3.2Z" transform="translate(-204.502 -137.217)" fill="#3f3d56"/><path d="M652.33,117.918H628.09a18,18,0,0,1-16.668,24.8H505.028a18,18,0,0,1-16.666-24.8H465.72a37.888,37.888,0,0,0-37.888,37.888V636a37.888,37.888,0,0,0,37.888,37.888H652.33A37.888,37.888,0,0,0,690.218,636h0V155.805a37.888,37.888,0,0,0-37.887-37.887Z" transform="translate(-207.222 -139.976)" fill="#fff"/><path d="M473.861,304.131q-3.752-1.286-7.564-2.383.628-2.568,1.169-5.163c5.726-27.8,1.982-50.2-10.805-57.571-12.262-7.073-32.314.3-52.571,17.923q-3,2.617-5.851,5.371-1.918-1.834-3.9-3.6c-21.221-18.846-42.481-26.785-55.272-19.391-12.25,7.091-15.885,28.147-10.722,54.5q.756,3.914,1.736,7.784c-3.007.855-5.915,1.766-8.7,2.738C296.5,313,280.61,326.611,280.61,340.715c0,14.565,17.061,29.175,42.98,38.033q3.154,1.07,6.354,1.989-1.036,4.16-1.846,8.389c-4.917,25.892-1.074,46.452,11.142,53.5,12.621,7.284,33.8-.2,54.421-18.23,1.63-1.426,3.264-2.939,4.917-4.52q3.094,2.984,6.35,5.794c19.977,17.19,39.712,24.134,51.913,17.065,12.606-7.3,16.7-29.383,11.384-56.251q-.605-3.079-1.411-6.282,2.235-.658,4.372-1.365c26.944-8.926,44.478-23.358,44.478-38.12,0-14.156-16.407-27.844-41.792-36.584Z" transform="translate(-46 -84.41)" fill="#9a61d7"/><path d="M484.526,385.773c-1.286.427-2.6.836-3.949,1.237a235.106,235.106,0,0,0-11.9-29.777,235.647,235.647,0,0,0,11.441-29.342c2.4.7,4.739,1.43,6.986,2.2,21.751,7.485,35.019,18.555,35.019,27.087C522.12,366.262,507.79,378.066,484.526,385.773Zm-9.652,19.13c2.353,11.88,2.685,22.621,1.135,31.013-1.4,7.545-4.213,12.576-7.693,14.591-7.409,4.285-23.249-1.286-40.332-15.987q-2.939-2.53-5.911-5.389a236.1,236.1,0,0,0,19.7-25.015,234.569,234.569,0,0,0,31.834-4.917q.719,2.9,1.275,5.673ZM377.25,449.774c-7.239,2.557-13,2.629-16.486.62-7.413-4.278-10.5-20.8-6.29-42.927q.756-3.922,1.713-7.8a236.693,236.693,0,0,0,31.675,4.588,243.984,243.984,0,0,0,20.178,24.924q-2.19,2.122-4.478,4.126c-9.119,7.973-18.26,13.616-26.312,16.471Zm-33.9-64.058c-11.464-3.918-20.926-9.009-27.417-14.561-5.828-4.992-8.771-9.951-8.771-13.971,0-8.559,12.761-19.478,34.039-26.895q4.009-1.4,8.09-2.545a240.945,240.945,0,0,0,11.456,29.682,244.427,244.427,0,0,0-11.6,30.106Q346.222,386.7,343.347,385.717Zm11.365-77.359c-4.418-22.575-1.486-39.606,5.9-43.873,7.863-4.539,25.249,1.936,43.577,18.211,1.172,1.04,2.349,2.129,3.525,3.253a240.509,240.509,0,0,0-20.019,24.78,245.235,245.235,0,0,0-31.365,4.875q-.9-3.6-1.615-7.243Zm101.4,25.034q-3.446-5.953-7.144-11.755c7.5.949,14.682,2.2,21.429,3.748a213.882,213.882,0,0,1-7.523,20.238q-3.256-6.184-6.762-12.231Zm-41.361-40.268a215.312,215.312,0,0,1,13.831,16.694q-13.884-.654-27.78,0c4.565-6.021,9.243-11.619,13.948-16.69Zm-41.6,40.336q-3.461,6-6.638,12.156c-2.924-6.933-5.424-13.752-7.466-20.336,6.706-1.513,13.858-2.727,21.308-3.661q-3.752,5.84-7.212,11.842Zm7.417,60a213.553,213.553,0,0,1-21.653-3.483c2.076-6.7,4.633-13.665,7.621-20.749q3.188,6.161,6.66,12.163,3.533,6.123,7.364,12.069Zm34.47,28.491A215.647,215.647,0,0,1,400.9,405.028q6.751.269,13.752.269,7.186,0,14.187-.318a213.292,213.292,0,0,1-13.8,16.974Zm47.916-53.082a212.852,212.852,0,0,1,7.912,20.673,212.3,212.3,0,0,1-21.936,3.74q3.725-5.911,7.216-11.963Q459.693,375.172,462.953,368.871Zm-15.507,7.436q-5.34,9.274-11.275,18.192c-6.974.5-14.179.756-21.524.756s-14.429-.227-21.282-.673q-6.085-8.888-11.494-18.218t-10.026-18.941q4.641-9.656,10-18.948h0q5.348-9.289,11.4-18.154c6.993-.529,14.156-.806,21.4-.806s14.455.28,21.441.809q5.98,8.839,11.346,18.082t10.132,18.861q-4.709,9.69-10.1,19.024Zm20.715-112.125c7.871,4.539,10.93,22.844,5.987,46.849q-.488,2.341-1.059,4.671a240.442,240.442,0,0,0-31.426-4.966,236.438,236.438,0,0,0-19.867-24.8q2.647-2.549,5.4-4.958C444.553,265.88,460.771,259.92,468.161,264.182Z" transform="translate(-62.509 -100.879)" fill="#fff"/><path d="M556.831,456.79a20.991,20.991,0,1,1-20.991,20.991,20.991,20.991,0,0,1,20.991-20.991" transform="translate(-204.699 -221.476)" fill="#ff6584"/></g></svg>