<svg xmlns="http://www.w3.org/2000/svg" width="291.98" height="579.58" viewBox="0 0 291.98 579.58"><g transform="translate(-485.92 -0.29)"><path d="M934.4,293.4v65.68a2.3,2.3,0,0,1-2.29,2.29h-1.63v342.15a35.7,35.7,0,0,1-35.7,35.7H680.99a35.693,35.693,0,0,1-35.69-35.7V373.368h-1.18a1.618,1.618,0,0,1-1.62-1.61v-37.38a1.62,1.62,0,0,1,1.62-1.62h1.18v-14.08h-1.19a1.7,1.7,0,0,1-1.69-1.7v-36.87a1.694,1.694,0,0,1,1.69-1.69h1.19V259.2h-1.21a1.5,1.5,0,0,1-1.5-1.5v-20.12a1.506,1.506,0,0,1,1.5-1.51h1.21v-40.74a35.691,35.691,0,0,1,35.689-35.69H894.78a35.7,35.7,0,0,1,35.7,35.69v95.78h1.63a2.3,2.3,0,0,1,2.29,2.29Z" transform="translate(-156.5 -159.348)" fill="#3f3d56"/><path d="M918.355,202.789V715.81a23.076,23.076,0,0,1-23.1,23.041H686.535a23.036,23.036,0,0,1-23.1-23.041V202.789a23.075,23.075,0,0,1,23.1-23.051h31.238v4a19,19,0,0,0,19.021,18.98h106.15a19,19,0,0,0,19.021-18.98v-4h33.289a23.068,23.068,0,0,1,23.1,23.051Z" transform="translate(-158.515 -169.448)" fill="#fff"/><rect width="208" height="27" transform="translate(528.827 351.959)" fill="#e6e6e6"/><rect width="208" height="27" transform="translate(528.827 399.959)" fill="#e6e6e6"/><rect width="208" height="27" transform="translate(528.827 447.959)" fill="#e6e6e6"/><circle cx="20" cy="20" r="20" transform="translate(693.827 70.959)" fill="#ff6584"/><rect width="208" height="138" transform="translate(528.41 157.959)" fill="#e6e6e6"/><path d="M767.235,395.188c6.073,22.45,26.875,36.354,26.875,36.354s10.955-22.495,4.882-44.945-26.875-36.354-26.875-36.354S761.162,372.738,767.235,395.188Z" transform="translate(-156 -159.638)" fill="#3f3d56"/><path d="M776.159,390.363c16.665,16.223,18.7,41.16,18.7,41.16s-24.984-1.364-41.648-17.587-18.7-41.16-18.7-41.16S759.495,374.141,776.159,390.363Z" transform="translate(-156 -159.638)" fill="#9a61d7"/><path d="M822.484,395.188c-6.073,22.45-26.875,36.354-26.875,36.354s-10.955-22.495-4.882-44.945S817.6,350.243,817.6,350.243,828.557,372.738,822.484,395.188Z" transform="translate(-156 -159.638)" fill="#3f3d56"/><path d="M813.56,390.363c-16.665,16.223-18.7,41.16-18.7,41.16s24.984-1.364,41.648-17.587,18.7-41.16,18.7-41.16S830.225,374.141,813.56,390.363Z" transform="translate(-156 -159.638)" fill="#9a61d7"/></g></svg>