<svg xmlns="http://www.w3.org/2000/svg" width="609.443" height="469.519" viewBox="0 0 609.443 469.519"><g transform="translate(-123.943)"><path d="M875.955,627.183H279.826c-3.675-.005-6.653-3.927-6.657-8.767V166.431c0-4.84,2.982-8.762,6.657-8.767H875.955c3.675.005,6.653,3.927,6.657,8.767V618.416c0,4.84-2.982,8.762-6.656,8.767ZM279.826,159.612c-2.858,0-5.174,3.055-5.177,6.819V618.416c0,3.764,2.319,6.814,5.177,6.819H875.955c2.858,0,5.174-3.055,5.177-6.819V166.431c0-3.764-2.32-6.814-5.177-6.819Z" transform="translate(-149.227 -157.664)" fill="#3f3d56"/><path d="M551.151,474.755H345.05a6.888,6.888,0,0,1-6.88-6.88V340.794a6.888,6.888,0,0,1,6.88-6.88h206.1a6.888,6.888,0,0,1,6.88,6.88V467.875A6.888,6.888,0,0,1,551.151,474.755Z" transform="translate(-161.614 -145.832)" fill="#e6e6e6"/><circle cx="5.666" cy="5.666" r="5.666" transform="translate(142.451 10.717)" fill="#ff6584"/><path d="M5.666,0A5.666,5.666,0,1,1,0,5.666,5.666,5.666,0,0,1,5.666,0Z" transform="translate(158.639 10.717)" fill="#f4be50"/><circle cx="5.666" cy="5.666" r="5.666" transform="translate(174.828 10.717)" fill="#61c454"/><rect width="607.823" height="4.047" transform="translate(124.752 29.949)" fill="#3f3d56"/><path d="M363.616,322.914a6.077,6.077,0,0,0-6.071,6.071V456.066a6.077,6.077,0,0,0,6.071,6.071h206.1a6.077,6.077,0,0,0,6.071-6.071V328.985a6.077,6.077,0,0,0-6.071-6.071Z" transform="translate(-165.306 -146.845)" fill="#3f3d56"/><path d="M728.621,324.414a4.452,4.452,0,0,0,0,8.9h240.4a4.452,4.452,0,1,0,0-8.9Z" transform="translate(-292.703 -161.341)" fill="#9a61d7"/><path d="M728.621,359.414a4.452,4.452,0,0,0,0,8.9h240.4a4.452,4.452,0,1,0,0-8.9Z" transform="translate(-292.703 -162.113)" fill="#ff6584"/><path d="M728.621,394.414a4.452,4.452,0,0,0,0,8.9h240.4a4.452,4.452,0,1,0,0-8.9Z" transform="translate(-292.703 -162.884)" fill="#9a61d7"/><path d="M728.621,429.414a4.452,4.452,0,0,0,0,8.9h240.4a4.452,4.452,0,1,0,0-8.9Z" transform="translate(-292.703 -163.656)" fill="#e6e6e6"/><path d="M728.621,464.414a4.452,4.452,0,0,0,0,8.9h240.4a4.452,4.452,0,1,0,0-8.9Z" transform="translate(-292.703 -164.428)" fill="#e6e6e6"/><path d="M728.621,499.414a4.452,4.452,0,0,0,0,8.9h240.4a4.452,4.452,0,1,0,0-8.9Z" transform="translate(-292.703 -165.199)" fill="#e6e6e6"/></g></svg>